<svg xmlns="http://www.w3.org/2000/svg" viewBox="0 0 500 500"><g id="freepik--background-complete--inject-10"><path d="M466.94,346.36s-.37-.18-1.07-.56l-3.1-1.71c-.69-.36-1.43-.82-2.29-1.24l-2.83-1.38c-1-.5-2.11-1.07-3.31-1.6l-3.84-1.66a138.77,138.77,0,0,0-20.39-6.83A147.29,147.29,0,0,0,402,327.14a145.7,145.7,0,0,0-34.37,2.5,170.24,170.24,0,0,0-18.57,5c-6.27,2.11-12.64,4.53-19.13,7.11s-13.12,5.33-20,7.94a211.15,211.15,0,0,1-21.27,7.06,112.43,112.43,0,0,1-22.91,3.76,85.88,85.88,0,0,1-11.89-.11,110.7,110.7,0,0,1-11.93-1.66,158.37,158.37,0,0,1-23-6.52c-7.41-2.65-14.57-5.62-21.59-8.57s-13.89-5.88-20.7-8.55-13.57-5-20.29-6.94a123.7,123.7,0,0,0-20-3.93c-1.64-.21-3.29-.27-4.91-.41s-3.24-.06-4.84-.09l-2.4,0c-.79,0-1.58.08-2.37.11l-4.68.28a129.28,129.28,0,0,0-33.47,8.08,212.09,212.09,0,0,0-25.83,12c-7.37,4-13.59,7.72-18.62,10.83s-8.91,5.56-11.53,7.23l-3,1.89c-.67.43-1,.63-1,.63l1-.67,3-1.94c2.61-1.7,6.46-4.2,11.49-7.31S50.35,348,57.72,344a211.17,211.17,0,0,1,25.84-12.12,128.74,128.74,0,0,1,33.56-8.17l4.7-.29c.79,0,1.59-.11,2.39-.11l2.4,0c1.61,0,3.23,0,4.87.08s3.28.2,4.92.4a124.31,124.31,0,0,1,20.07,3.93c6.74,1.9,13.52,4.28,20.34,6.93s13.71,5.6,20.72,8.55,14.17,5.91,21.56,8.55a158.12,158.12,0,0,0,22.94,6.5,112.48,112.48,0,0,0,11.87,1.65,85,85,0,0,0,11.83.11,111.69,111.69,0,0,0,22.8-3.74,206,206,0,0,0,21.22-7c6.84-2.6,13.47-5.32,20-7.91s12.88-5,19.17-7.11a169.79,169.79,0,0,1,18.63-5A145.25,145.25,0,0,1,402,326.78a147.29,147.29,0,0,1,28.2,4.31,137.19,137.19,0,0,1,20.4,6.93l3.84,1.68c1.19.55,2.27,1.13,3.3,1.63l2.82,1.41c.86.42,1.6.89,2.28,1.26l3.08,1.75Z" style="fill:#e0e0e0"></path><path d="M163.71,72.2a25.61,25.61,0,0,0-3-6.25A8.6,8.6,0,0,0,155,62.26a5.27,5.27,0,0,0-5.61,3.15c-.33-4.95-1-10-3.5-14.32s-7.1-7.67-12-7.37c-4.67.29-8.67,3.76-10.89,7.87s-3,8.84-3.71,13.45c-1.77-2.17-5.5-1.48-7.35.62s-2.31,5-2.7,7.82h55Z" style="fill:#f5f5f5"></path><path d="M67.45,91.2a13.79,13.79,0,0,0-1.58-3.28,4.56,4.56,0,0,0-3-1.94A2.78,2.78,0,0,0,60,87.64a17.1,17.1,0,0,0-1.84-7.51c-1.29-2.25-3.72-4-6.31-3.86a7.38,7.38,0,0,0-5.71,4.12,22.12,22.12,0,0,0-2,7.06c-.92-1.14-2.88-.78-3.85.32a7.69,7.69,0,0,0-1.42,4.1H67.73Z" style="fill:#f5f5f5"></path><path d="M208,138.22a13.07,13.07,0,0,0-1.58-3.28,4.51,4.51,0,0,0-3-1.94,2.77,2.77,0,0,0-2.94,1.66,17.13,17.13,0,0,0-1.84-7.51c-1.3-2.25-3.72-4-6.32-3.86a7.38,7.38,0,0,0-5.7,4.12,21.61,21.61,0,0,0-2,7.06c-.93-1.14-2.88-.78-3.85.32a7.61,7.61,0,0,0-1.42,4.1h28.86Z" style="fill:#f5f5f5"></path><path d="M457.27,233.68a13.53,13.53,0,0,0-1.58-3.27,4.56,4.56,0,0,0-3-1.94,2.77,2.77,0,0,0-2.94,1.66,17.24,17.24,0,0,0-1.84-7.51c-1.3-2.25-3.72-4-6.32-3.86a7.39,7.39,0,0,0-5.71,4.12,21.85,21.85,0,0,0-1.94,7.06c-.93-1.14-2.89-.79-3.86.32a7.78,7.78,0,0,0-1.42,4.1h28.86Z" style="fill:#f5f5f5"></path><path d="M415.09,57.31a25.61,25.61,0,0,0-3-6.25,8.6,8.6,0,0,0-5.67-3.69,5.27,5.27,0,0,0-5.6,3.15c-.33-4.94-1-10-3.51-14.32s-7.1-7.67-12.05-7.36c-4.67.28-8.66,3.75-10.88,7.86s-3,8.84-3.72,13.46c-1.76-2.18-5.5-1.49-7.35.61s-2.31,5-2.7,7.82h55Z" style="fill:#f5f5f5"></path><path d="M429.45,300.38a25.78,25.78,0,0,0-3-6.25,8.64,8.64,0,0,0-5.67-3.69,5.28,5.28,0,0,0-5.61,3.16c-.33-5-1-10-3.5-14.32s-7.1-7.68-12-7.37c-4.67.28-8.67,3.75-10.89,7.86s-3,8.84-3.71,13.46c-1.77-2.17-5.5-1.49-7.35.61s-2.31,5.05-2.7,7.83h55Z" style="fill:#e0e0e0"></path><path d="M122.15,275.29a25.39,25.39,0,0,0-3-6.25,8.64,8.64,0,0,0-5.67-3.69,5.27,5.27,0,0,0-5.61,3.16c-.33-4.95-1-10-3.51-14.32s-7.09-7.67-12-7.37c-4.67.28-8.67,3.75-10.89,7.86s-3,8.84-3.71,13.46c-1.77-2.17-5.5-1.49-7.35.62s-2.31,5-2.71,7.82H122.7Z" style="fill:#f5f5f5"></path><path d="M473.23,144.84a38.75,38.75,0,0,0-4.59-9.52c-2.09-2.86-5.13-5.2-8.64-5.63s-7.4,1.47-8.54,4.81c-.51-7.54-1.58-15.27-5.35-21.82S435.3,101,427.75,101.46c-7.11.43-13.2,5.71-16.58,12s-4.54,13.46-5.65,20.5c-2.7-3.31-8.39-2.27-11.2.94s-3.53,7.69-4.13,11.92h83.87Z" style="fill:#e0e0e0"></path><path d="M411.42,162a6.28,6.28,0,0,1,.89-2.75c.45-.91,2.24-3,2.7-3.93,0,0,1.39,2.3,2.17,3.48a4.53,4.53,0,0,1,.64,3.82,3.7,3.7,0,0,1-2.82,2.48,3.13,3.13,0,0,1-3.58-3.1Z" style="fill:#ebebeb"></path><path d="M447.6,162.28a6.26,6.26,0,0,1,.88-2.76c.46-.91,2.24-3,2.7-3.93,0,0,1.4,2.3,2.17,3.48a4.53,4.53,0,0,1,.64,3.82,3.7,3.7,0,0,1-2.82,2.48,3.21,3.21,0,0,1-2.49-.73A3.16,3.16,0,0,1,447.6,162.28Z" style="fill:#ebebeb"></path><path d="M428.17,174.91a6.28,6.28,0,0,1,.89-2.75c.45-.91,2.24-3,2.7-3.93,0,0,1.39,2.3,2.17,3.47a4.54,4.54,0,0,1,.64,3.82,3.69,3.69,0,0,1-2.82,2.48,3.14,3.14,0,0,1-3.58-3.09Z" style="fill:#ebebeb"></path><path d="M304.1,69.49A34.74,34.74,0,0,0,300,61a11.79,11.79,0,0,0-7.74-5c-3.14-.38-6.62,1.32-7.64,4.31-.46-6.75-1.41-13.67-4.79-19.53s-9.68-10.47-16.44-10.06c-6.36.39-11.81,5.12-14.84,10.74s-4.07,12-5.06,18.35c-2.42-3-7.51-2-10,.84s-3.16,6.89-3.69,10.67h75.08Z" style="fill:#e0e0e0"></path><path d="M248.76,84.82a5.61,5.61,0,0,1,.79-2.46c.41-.82,2-2.71,2.42-3.53,0,0,1.25,2.06,1.95,3.12a4.05,4.05,0,0,1,.57,3.42A3.31,3.31,0,0,1,252,87.59a2.81,2.81,0,0,1-3.2-2.77Z" style="fill:#ebebeb"></path><path d="M281.15,85.11a5.69,5.69,0,0,1,.79-2.47c.41-.81,2-2.7,2.42-3.52,0,0,1.25,2.06,1.94,3.11a4.06,4.06,0,0,1,.57,3.42,3.28,3.28,0,0,1-2.52,2.22,2.8,2.8,0,0,1-3.2-2.76Z" style="fill:#ebebeb"></path><path d="M263.76,96.42a5.61,5.61,0,0,1,.79-2.46c.41-.82,2-2.71,2.42-3.53,0,0,1.25,2.07,1.94,3.12a4.05,4.05,0,0,1,.57,3.42A3.29,3.29,0,0,1,267,99.19a2.81,2.81,0,0,1-3.2-2.77Z" style="fill:#ebebeb"></path><path d="M157.47,173.23c-1.48-3.95-3-8-5.48-11.36s-6.12-6.2-10.31-6.71-8.83,1.75-10.19,5.74c-.6-9-1.88-18.23-6.38-26s-12.91-14-21.91-13.4c-8.48.52-15.75,6.83-19.78,14.31S78,151.83,76.67,160.23c-3.22-3.95-10-2.71-13.37,1.12s-4.2,9.18-4.92,14.22H158.46Z" style="fill:#e0e0e0"></path><path d="M80.11,201.31A7.55,7.55,0,0,1,81.17,198c.54-1.08,2.67-3.61,3.22-4.69,0,0,1.67,2.74,2.59,4.15a5.37,5.37,0,0,1,.76,4.55,4.38,4.38,0,0,1-3.36,3,3.73,3.73,0,0,1-4.27-3.69Z" style="fill:#ebebeb"></path><path d="M123.28,201.7a7.57,7.57,0,0,1,1-3.29c.55-1.08,2.68-3.6,3.22-4.69,0,0,1.67,2.75,2.6,4.15a5.45,5.45,0,0,1,.76,4.56,4.41,4.41,0,0,1-3.37,3,3.73,3.73,0,0,1-4.26-3.69Z" style="fill:#ebebeb"></path><path d="M100.1,216.78a7.57,7.57,0,0,1,1.05-3.29c.55-1.08,2.68-3.61,3.23-4.69,0,0,1.66,2.75,2.59,4.15a5.42,5.42,0,0,1,.76,4.56,4.39,4.39,0,0,1-3.36,3,3.73,3.73,0,0,1-4.27-3.68Z" style="fill:#ebebeb"></path></g><g id="freepik--Floor--inject-10"><path d="M467.46,462.36c0,.14-97.37.26-217.45.26s-217.47-.12-217.47-.26,97.35-.26,217.47-.26S467.46,462.21,467.46,462.36Z" style="fill:#263238"></path></g><g id="freepik--Plants--inject-10"><path d="M410.51,405.19a11.05,11.05,0,0,1,5.73,6.49,19.59,19.59,0,0,1,.76,8.78c-.65,5.7-3.89,11.46-7.38,16-4.8-4.19-5.9-11.5-6.23-15.25-.52-5.92,2.14-16.92,7.12-16" style="fill:#FF725E"></path><path d="M415.21,445.89a9.44,9.44,0,0,1,3-9,12.56,12.56,0,0,1,9.24-2.88,5.29,5.29,0,0,1,4.05,1.82,4,4,0,0,1,.06,4.09,8.22,8.22,0,0,1-3,3c-4.16,2.61-8.67,4.37-13.37,3" style="fill:#FF725E"></path><path d="M409.05,463.37a6.93,6.93,0,0,1,.17-1.17c.15-.82.35-1.89.58-3.17a33,33,0,0,1,3.27-10.11,20.29,20.29,0,0,1,7.26-7.72,14.41,14.41,0,0,1,3-1.31,6.76,6.76,0,0,1,.85-.21l.3-.05a22.51,22.51,0,0,0-4,1.82,21,21,0,0,0-7.05,7.67,35.67,35.67,0,0,0-3.34,10c-.29,1.33-.53,2.4-.71,3.14A5.61,5.61,0,0,1,409.05,463.37Z" style="fill:#263238"></path><path d="M409.23,413.75a3.61,3.61,0,0,1,.06.51q0,.57.09,1.47c.06,1.28.14,3.13.21,5.41.15,4.57.27,10.88.24,17.86s-.21,13.29-.39,17.86c-.1,2.28-.19,4.13-.27,5.41,0,.6-.07,1.08-.1,1.46a1.61,1.61,0,0,1-.06.51,2.81,2.81,0,0,1,0-.51c0-.38,0-.87,0-1.47,0-1.33.08-3.17.13-5.41.12-4.57.24-10.88.27-17.85s0-13.28-.11-17.85c0-2.25-.07-4.08-.09-5.41,0-.61,0-1.09,0-1.48A3.45,3.45,0,0,1,409.23,413.75Z" style="fill:#263238"></path><path d="M406.9,449.36a22.06,22.06,0,0,0-12-16.16c-1.61-.76-3.7-1.27-5-.07s-1,3.34-.38,5a18.85,18.85,0,0,0,17.33,11.7" style="fill:#FF725E"></path><path d="M395.64,438.61a7,7,0,0,1,1,.45,10.34,10.34,0,0,1,1.16.61,16.82,16.82,0,0,1,1.46.92,18.36,18.36,0,0,1,1.68,1.26,21.76,21.76,0,0,1,1.78,1.62,22.75,22.75,0,0,1,5.63,9.41,19.36,19.36,0,0,1,.56,2.35,19.15,19.15,0,0,1,.29,2.08,15.43,15.43,0,0,1,.08,1.72,10.43,10.43,0,0,1,0,1.31,5.37,5.37,0,0,1-.12,1.1c-.1,0,.07-1.58-.21-4.1a19.85,19.85,0,0,0-.34-2A19.5,19.5,0,0,0,408,453a23.2,23.2,0,0,0-5.53-9.25,21.26,21.26,0,0,0-1.73-1.62,18.66,18.66,0,0,0-1.63-1.29C397,439.35,395.59,438.69,395.64,438.61Z" style="fill:#263238"></path><path d="M346.49,451.52a43.75,43.75,0,0,1,4.45,5.23,45.7,45.7,0,0,1,4.05,5.56,44.5,44.5,0,0,1-4.45-5.24A47,47,0,0,1,346.49,451.52Z" style="fill:#263238"></path><path d="M355.66,441.91a104,104,0,0,1,1.62,10.28c.75,5.71,1.25,10.34,1.11,10.36a101.08,101.08,0,0,1-1.62-10.29A103.59,103.59,0,0,1,355.66,441.91Z" style="fill:#263238"></path><path d="M365.83,448a56.93,56.93,0,0,1-2.05,7.37,54.81,54.81,0,0,1-2.55,7.21,57.54,57.54,0,0,1,2-7.36A56,56,0,0,1,365.83,448Z" style="fill:#263238"></path><path d="M444.71,451.52a44.33,44.33,0,0,1,4.46,5.23,46.22,46.22,0,0,1,4,5.56,44.5,44.5,0,0,1-4.45-5.24A47,47,0,0,1,444.71,451.52Z" style="fill:#263238"></path><path d="M453.88,441.91a100.56,100.56,0,0,1,1.62,10.28,103.92,103.92,0,0,1,1.11,10.36c-.14,0-.87-4.59-1.62-10.29S453.74,441.93,453.88,441.91Z" style="fill:#263238"></path><path d="M464.05,448a56.93,56.93,0,0,1-2.05,7.37,57.58,57.58,0,0,1-2.54,7.21A110.65,110.65,0,0,1,464.05,448Z" style="fill:#263238"></path><path d="M27.22,451.52a46,46,0,0,1,4.45,5.23,46.22,46.22,0,0,1,4,5.56,45.65,45.65,0,0,1-4.45-5.24A44.88,44.88,0,0,1,27.22,451.52Z" style="fill:#263238"></path><path d="M36.38,441.91A102.1,102.1,0,0,1,38,452.19c.75,5.71,1.24,10.34,1.1,10.36s-.87-4.59-1.62-10.29S36.24,441.93,36.38,441.91Z" style="fill:#263238"></path><path d="M46.55,448a55.06,55.06,0,0,1-2,7.37A57.58,57.58,0,0,1,42,462.62,114.79,114.79,0,0,1,46.55,448Z" style="fill:#263238"></path></g><g id="freepik--Unicorn--inject-10"><path d="M325.85,317.9c9.19-.61,18.52-4.06,24.56-11s8-17.73,3.29-25.64c-2.93-4.9-8.37-9.54-6.85-15.05.88-3.19,3.91-5.3,5.35-8.28,2.09-4.3.46-9.49-1.87-13.67s-5.39-8.11-6.33-12.81,1.31-10.53,6-11.4l-37.58-14.55-5.81,45.92Z" style="fill:#FF725E"></path><g style="opacity:0.1"><path d="M353.7,281.24c-2.93-4.9-8.37-9.54-6.85-15.05.88-3.19,3.91-5.3,5.35-8.28,2.09-4.3.46-9.49-1.87-13.67s-5.39-8.11-6.33-12.81,1.31-10.53,6-11.4l-8-3.11a47.48,47.48,0,0,0-3.14,6.75c-1.8,5-2.5,10.46-.94,15.49,1.64,5.28,5.68,9.87,5.89,15.4.26,7.27-6.24,13.81-5,21,1,5.59,6.5,9.54,7.53,15.13.75,4.13-1.11,8.27-3.23,11.89s-4.62,7.19-5.32,11.33a9.92,9.92,0,0,0-.15,1.54,30.88,30.88,0,0,0,12.73-8.54C356.45,299.93,358.43,289.15,353.7,281.24Z" style="fill:#fff"></path></g><path d="M338.1,244.84,336,246l2.07,1.13a3.87,3.87,0,0,1,1.54,1.54l1.13,2.07,1.13-2.07a3.89,3.89,0,0,1,1.55-1.54l2.06-1.13-2.06-1.13a3.89,3.89,0,0,1-1.55-1.54l-1.13-2.07-1.13,2.07A3.87,3.87,0,0,1,338.1,244.84Z" style="fill:#fafafa"></path><path d="M347.2,288.64l-1.07.58,1.07.59a2,2,0,0,1,.79.79l.59,1.07.58-1.07a2,2,0,0,1,.8-.79l1.06-.59-1.06-.58a1.93,1.93,0,0,1-.8-.8l-.58-1.06-.59,1.06A2,2,0,0,1,347.2,288.64Z" style="fill:#fafafa"></path><path d="M293.14,435.51c5.92.94-19-4.17-32.19-5.19-11.91-.93-32.38-7.72-34-8.2,6.75-11.48,14.31-27.72,16.21-40.9s-5.09-25-13.73-35.13c-3.77-4.42-11.47-16.82-24-18.12-13.79,4.32-38.5,22-44,35.39s-2.7,38.12,8.59,50.25c3.63,3.91,1.56,1.24,6.08,5.73,3.6,3.57,7.43,7.21,8.67,12.13,2.18,8.6-.33,22,8.61,21.94,10.06-.1,11.81.4,35.05-.67,19.2-.9,43.43-.25,43.43-.25l4.56,9.58s0,0,0,0c.29.2,39-2.22,39-2.22S293.18,434.86,293.14,435.51Z" style="fill:#e0e0e0"></path><g style="opacity:0.1"><path d="M293.14,435.51c5.92.94-19-4.17-32.19-5.19-11.91-.93-32.38-7.72-34-8.2,6.75-11.48,14.31-27.72,16.21-40.9s-5.09-25-13.73-35.13c-3.77-4.42-11.47-16.82-24-18.12-13.79,4.32-38.5,22-44,35.39s-2.7,38.12,8.59,50.25c3.63,3.91,1.56,1.24,6.08,5.73,3.6,3.57,7.43,7.21,8.67,12.13,2.18,8.6-.33,22,8.61,21.94,10.06-.1,11.81.4,35.05-.67,19.2-.9,43.43-.25,43.43-.25l4.56,9.58s0,0,0,0c.29.2,39.95-.09,39.95-.09S293.18,434.86,293.14,435.51Z"></path></g><path d="M326.93,302.75c-1.4,1.42-10,18.18-10,18.18s-1.16,75.61-1.72,84.57c-.36,5.72.36,26.37,1.85,44.62L328.88,462l-30.24.32c.34-3.19,1.78-10.1,1.78-10.1,8.23-9,4.07-34.39,0-43.46-7.19-16.21-8.95-30.29-12.84-43.91s1.32-29.67-18.13-41.43l.63-25.31,23.15-9.48,30.59,5.23Z" style="fill:#e0e0e0"></path><path d="M287.76,365.36c-2.48-8.08-3-17.89-4.91-24.79s-6.93-12.5-13.68-12.6" style="fill:#e0e0e0"></path><path d="M330.73,224.13c-1.14,1.71,6.21,32.6,9.63,56s-31.3,64.26-31.3,64.26c-23.12,11.89-45,23.68-64.83,35.28l-54.89,31.3-4,.34-58.49-72.54s8-13.6,31.33-26.14,66-37.52,75.14-53.48,30.12-60.94,30.12-60.94L334.15,211Z" style="fill:#fafafa"></path><path d="M340.34,140.59s14.57,12.64,15.85,18.43,12.64,33.2,15.86,40.27,16.71,25.07,15.42,31.47-2.77,13.67-9,15.17a21.62,21.62,0,0,1-11.37-.37l-1.07-1.71s-5.36,1.5-7.71.21-3.86-8.35-9.86-13.06S335,219.43,322.35,217.07l-9-3,1.93,19.5,8.78,43.91H236.41l3.21-64.25,17-28.06,40-51.06,36.17,1.77Z" style="fill:#fafafa"></path><path d="M354.1,224a31.49,31.49,0,0,1,8.3-5c1.33-.62,5.78-2.52,8.44-3.52,2.05-.77,7.71-1.46,9.82-.84,3.54,6.08,6.49,12,5.85,15.19-1.28,6.4-2.76,13.67-9,15.17a21.68,21.68,0,0,1-11.37-.36l-1.07-1.72s-5.35,1.5-7.71.22c-2-1.09-3.36-6.27-7.33-10.69C349.87,230.81,349.47,228.24,354.1,224Z" style="fill:#FF725E"></path><g style="opacity:0.8"><path d="M354.1,224a31.49,31.49,0,0,1,8.3-5c1.33-.62,5.78-2.52,8.44-3.52,2.05-.77,7.71-1.46,9.82-.84,3.54,6.08,6.49,12,5.85,15.19-1.28,6.4-2.76,13.67-9,15.17a21.68,21.68,0,0,1-11.37-.36l-1.07-1.72s-5.35,1.5-7.71.22c-2-1.09-3.36-6.27-7.33-10.69C349.87,230.81,349.47,228.24,354.1,224Z" style="fill:#fff"></path></g><path d="M339.24,127.94c1-3.18,3.41-6.42,6.74-6.38a8.37,8.37,0,0,1,3-7.29,18.53,18.53,0,0,1,7.34-3.59,8.36,8.36,0,0,1,7.13-8.41,1.78,1.78,0,0,0,1.07-.35,1.7,1.7,0,0,0,.31-1.18,9,9,0,0,1,7.84-8.34,10.46,10.46,0,0,1,1.5-5.41c1.06-1.57,3.44-3.14,5.31-2.88A6.84,6.84,0,0,1,385.92,78a1.87,1.87,0,0,1,1.75.88c1.65,3.6-1.68,9.39-5.11,11.36a5.21,5.21,0,0,1-.53,5.36,15.8,15.8,0,0,1-5.14,4.63c1.1,4-2.54,9.3-6.35,11,1,3.91-3.17,11.06-7,12.34.26,2.73.71,5.59-8,13.21,0,0,.69,3.5-3.81,10.15L340.32,141A18,18,0,0,1,339.24,127.94Z" style="fill:#FF725E"></path><g style="opacity:0.8"><path d="M339.24,127.94c1-3.18,3.41-6.42,6.74-6.38a8.37,8.37,0,0,1,3-7.29,18.53,18.53,0,0,1,7.34-3.59,8.36,8.36,0,0,1,7.13-8.41,1.78,1.78,0,0,0,1.07-.35,1.7,1.7,0,0,0,.31-1.18,9,9,0,0,1,7.84-8.34,10.46,10.46,0,0,1,1.5-5.41c1.06-1.57,3.44-3.14,5.31-2.88A6.84,6.84,0,0,1,385.92,78a1.87,1.87,0,0,1,1.75.88c1.65,3.6-1.68,9.39-5.11,11.36a5.21,5.21,0,0,1-.53,5.36,15.8,15.8,0,0,1-5.14,4.63c1.1,4-2.54,9.3-6.35,11,1,3.91-3.17,11.06-7,12.34.26,2.73.71,5.59-8,13.21,0,0,.69,3.5-3.81,10.15L340.32,141A18,18,0,0,1,339.24,127.94Z" style="fill:#fff"></path></g><path d="M379.49,84c.08,0,.17.41.41,1a14.21,14.21,0,0,0,1.17,2.38c.53.91,1,1.75,1.31,2.39s.4,1.07.33,1.1-.29-.34-.65-.93-.9-1.37-1.44-2.3a9.27,9.27,0,0,1-1.08-2.54C379.39,84.4,379.43,84,379.49,84Z" style="fill:#FF725E"></path><path d="M372.74,91.5a5.55,5.55,0,0,1,.53,1.34,14.25,14.25,0,0,0,1.66,3,14.42,14.42,0,0,1,1.72,3.06,2.62,2.62,0,0,1,.23,1.45,11.13,11.13,0,0,1-.57-1.31,22.51,22.51,0,0,0-1.82-2.91A10.23,10.23,0,0,1,372.92,93,3.33,3.33,0,0,1,372.74,91.5Z" style="fill:#FF725E"></path><path d="M364.81,101.61a46.38,46.38,0,0,0,2.69,4.9c.86,1.26,1.87,2.27,2.4,3.19s.61,1.58.54,1.59-.25-.59-.85-1.39-1.62-1.78-2.52-3.09A11.67,11.67,0,0,1,364.81,101.61Z" style="fill:#FF725E"></path><path d="M363.62,123.82c-.09,0-.1-.88-.62-2.17a17.36,17.36,0,0,0-3-4.51,16.94,16.94,0,0,1-3-4.63,6.71,6.71,0,0,1-.56-2.23,20.32,20.32,0,0,1,.9,2.08,20.58,20.58,0,0,0,3.11,4.45,14.85,14.85,0,0,1,2.93,4.72A4.24,4.24,0,0,1,363.62,123.82Z" style="fill:#FF725E"></path><path d="M345.87,120.16c.09,0,0,1.12.38,2.85a15.68,15.68,0,0,0,2.76,6.22,18.58,18.58,0,0,0,2.6,2.75,12.38,12.38,0,0,1,2.16,2.33,3.74,3.74,0,0,1,.81,2.79,6.51,6.51,0,0,0-1.12-2.58,13.77,13.77,0,0,0-2.16-2.19,17.09,17.09,0,0,1-2.71-2.78,14.5,14.5,0,0,1-2.7-6.48,12.85,12.85,0,0,1-.13-2.13A2,2,0,0,1,345.87,120.16Z" style="fill:#FF725E"></path><path d="M355.15,113.49a8.9,8.9,0,0,0-1.77.39,8.46,8.46,0,0,0-3.36,2.73c-.55.68-1.1,1.32-1.51,1.92a4.08,4.08,0,0,0-.72,1.76,3.34,3.34,0,0,0,.32,1.73s-.18-.08-.36-.37a2.46,2.46,0,0,1-.32-1.39,4.05,4.05,0,0,1,.68-2,21.33,21.33,0,0,1,1.51-2,7.82,7.82,0,0,1,3.64-2.75A2.58,2.58,0,0,1,355.15,113.49Z" style="fill:#fff"></path><path d="M362.76,104.91c0,.08-.45,0-1.07.24a4,4,0,0,0-1.92,1.61,15.22,15.22,0,0,0-1.14,2.4c-.27.64-.47,1-.54,1s0-.45.19-1.12a9.32,9.32,0,0,1,1.05-2.57,3.73,3.73,0,0,1,2.27-1.67C362.33,104.64,362.78,104.86,362.76,104.91Z" style="fill:#fff"></path><path d="M370.07,95.08a13.48,13.48,0,0,0-2.45,2.59,13.9,13.9,0,0,0-1.26,3.34c-.06,0-.15-.42-.08-1.1A6.2,6.2,0,0,1,369,95.49C369.63,95.13,370,95,370.07,95.08Z" style="fill:#fff"></path><path d="M377.62,86.29c.07.14-1.16.72-2,2.09a12.5,12.5,0,0,0-1,2.71c-.06,0-.16-.33-.12-.9a4.65,4.65,0,0,1,2.28-3.62C377.25,86.29,377.6,86.23,377.62,86.29Z" style="fill:#fff"></path><path d="M383.62,80.55c.06.14-.9.59-1.7,1.56s-1.09,2-1.24,2a2.84,2.84,0,0,1,.84-2.28C382.42,80.69,383.59,80.41,383.62,80.55Z" style="fill:#fff"></path><path d="M344.9,124.67a12.46,12.46,0,0,0-2.73,1.32,11.57,11.57,0,0,0-2,2.3c-.06,0,0-.39.21-.93a4.82,4.82,0,0,1,1.45-1.78,4.77,4.77,0,0,1,2.1-.94C344.53,124.55,344.9,124.61,344.9,124.67Z" style="fill:#fff"></path><path d="M378.92,235.1a14.56,14.56,0,0,0-.36-3.08,4.64,4.64,0,0,0-1.52-2.53,2.81,2.81,0,0,0-2.82-.43,2,2,0,0,0-1.07,2.5c.8,1.85,4.11,1.31,4.92,3.15a1.42,1.42,0,0,0,.35.61c.19.14.56,0,.5-.22" style="fill:#263238"></path><path d="M368.26,232.53c-.19.08-.58-.29-.82-1.09A4.75,4.75,0,0,1,370,226c.75-.33,1.29-.28,1.35-.09.15.41-1.39,1.28-2.17,3S368.66,232.38,368.26,232.53Z" style="fill:#263238"></path><path d="M354.62,235.38c-.06-.15.8-.72,2.39-.52a6.4,6.4,0,0,1,2.51,1A12.39,12.39,0,0,1,361.9,238a27.63,27.63,0,0,1,3.17,4.6c.69,1.23,1.07,2,.9,2.15s-.87-.43-1.8-1.51-2.08-2.65-3.44-4.21a10.2,10.2,0,0,0-4-3.08C355.56,235.52,354.67,235.63,354.62,235.38Z" style="fill:#263238"></path><path d="M345.31,186.82c.14.3-.86,1.29-2.95,2.39a10.32,10.32,0,0,1-4.15,1.16,7.35,7.35,0,0,1-5.34-1.8,6.76,6.76,0,0,1-1.65-2.54,14.08,14.08,0,0,1-.66-2.43,22.57,22.57,0,0,1-.31-4.06c0-2.22,0-3.57.33-3.67s1.05,1.22,1.5,3.47c.25,1.11.45,2.41.82,3.72a7.75,7.75,0,0,0,1.75,3.6,5.65,5.65,0,0,0,3.54,1.31,12,12,0,0,0,3.5-.47C343.76,186.92,345.14,186.48,345.31,186.82Z" style="fill:#263238"></path><path d="M324.94,177.79a22.58,22.58,0,0,0,3.34,1.27,21.41,21.41,0,0,0,3.58.21,5.17,5.17,0,0,1-3.68.3A5.24,5.24,0,0,1,324.94,177.79Z" style="fill:#263238"></path><path d="M324.94,179.86a22.49,22.49,0,0,0,2.82.92,26.5,26.5,0,0,0,3,.07,5,5,0,0,1-5.78-1Z" style="fill:#263238"></path><path d="M302.94,171a19.4,19.4,0,0,0-2.13.76,12.58,12.58,0,0,0-4.69,3.85,20,20,0,0,0-3.42,8.34,24.57,24.57,0,0,0,.35,11,23.24,23.24,0,0,0,5.52,9.55,29.84,29.84,0,0,0,7.19,5.57,42.59,42.59,0,0,0,5.59,2.62l1.58.59a3,3,0,0,1,.54.22,2.1,2.1,0,0,1-.58-.12c-.37-.11-.92-.27-1.61-.5a36,36,0,0,1-5.7-2.49,29.25,29.25,0,0,1-7.36-5.56,23.37,23.37,0,0,1-5.67-9.74,24.57,24.57,0,0,1-.32-11.27,20,20,0,0,1,3.6-8.47,12.24,12.24,0,0,1,4.9-3.81,9.67,9.67,0,0,1,1.62-.5A2.41,2.41,0,0,1,302.94,171Z" style="fill:#263238"></path><g style="opacity:0.30000000000000004"><path d="M292,184.22c-.47,10.87,1.56,22.33,20.83,29.2a22,22,0,0,1-23.66-17.27C288.29,192,288.84,187.09,292,184.22Z"></path></g><path d="M335.73,173.76c.71-.18,1.48.29,2.37.68a22.66,22.66,0,0,0,3.22,1.25c1.32.39,2.77.68,4,1.07s2,.93,2.11,1.65-.58,1.47-1.88,2a8.61,8.61,0,0,1-5.66.25,7.13,7.13,0,0,1-4.7-4.05,3.29,3.29,0,0,1-.18-2A1.14,1.14,0,0,1,335.73,173.76Z" style="fill:#FF725E"></path><path d="M328.56,199.25a6.43,6.43,0,0,1,1.39-2.53c.62-.81,2.78-2.54,3.4-3.35,0,0,.94,2.53,1.47,3.83a4.52,4.52,0,0,1-.1,3.87,3.68,3.68,0,0,1-3.24,1.9,3.12,3.12,0,0,1-2.92-3.72Z" style="fill:#FF725E"></path><g style="opacity:0.6000000000000001"><path d="M328.56,199.25a6.43,6.43,0,0,1,1.39-2.53c.62-.81,2.78-2.54,3.4-3.35,0,0,.94,2.53,1.47,3.83a4.52,4.52,0,0,1-.1,3.87,3.68,3.68,0,0,1-3.24,1.9,3.12,3.12,0,0,1-2.92-3.72Z" style="fill:#fff"></path></g><path d="M321.3,206.19a4.11,4.11,0,0,1,.93-1.68c.41-.53,1.84-1.69,2.25-2.22,0,0,.62,1.68,1,2.54a3,3,0,0,1-.07,2.57,2.43,2.43,0,0,1-2.15,1.26,2.08,2.08,0,0,1-1.94-2.47Z" style="fill:#FF725E"></path><g style="opacity:0.6000000000000001"><path d="M321.3,206.19a4.11,4.11,0,0,1,.93-1.68c.41-.53,1.84-1.69,2.25-2.22,0,0,.62,1.68,1,2.54a3,3,0,0,1-.07,2.57,2.43,2.43,0,0,1-2.15,1.26,2.08,2.08,0,0,1-1.94-2.47Z" style="fill:#fff"></path></g><path d="M244.42,435.36s-17.6-3-30.58-6.3c-9.87-2.52-27.61-5.54-33.62-6.68a1.37,1.37,0,0,1-.84-2.15c.91-1.27,2.22-1.69,3.11-2.49,5.34-4.75,10.72-6.65,20.7-33.38,4.65-12.48-3.57-33.55-12.21-43.69-3.77-4.42-35.68-16.7-48.15-18-13.8,4.31-24.54,27.19-30.08,40.54s-2.7,38.13,8.59,50.25c3.63,3.91,1.56,1.24,6.08,5.73,3.6,3.58,7.43,7.21,8.67,12.13,2.18,8.6-.33,22,8.61,21.94,10.06-.09,11.81.41,35.05-.67,19.2-.89,43.43-.25,43.43-.25l3.6,9.67s0,0,0,0c.29.2,40.53-.39,40.53-.39S244.46,434.71,244.42,435.36Z" style="fill:#fafafa"></path><g style="opacity:0.30000000000000004"><path d="M202.5,391.06c7.13-21.72.15-36.73-16.06-48,10.05,1.07,17.49,6.08,21.53,15.35s3.61,20.13,0,29.59c-3.09,8.18-7.88,13.91-14.77,19.3C193.24,407.31,201.47,394.18,202.5,391.06Z"></path></g><path d="M245.31,435.46a2.37,2.37,0,0,1-.4,0l-1.16-.21-4.47-.86-16.41-3.26-24.33-4.89-14.36-2.91-3.76-.77a1.9,1.9,0,0,1-1-.4,1.47,1.47,0,0,1-.11-2.11c.3-.28.53-.43.79-.65,2.07-1.6,4.07-3.36,6-5.18a72.89,72.89,0,0,0,10.21-11.86,53.11,53.11,0,0,0,6.51-13,45,45,0,0,0,1.68-6.57,42.53,42.53,0,0,0,.53-6.37A40.89,40.89,0,0,0,203.52,365a37.19,37.19,0,0,0-3.71-8.7,35.45,35.45,0,0,0-2.22-3.2,26.84,26.84,0,0,0-2.14-2.48l-.49-.52-.5-.46-.91-.81a14.76,14.76,0,0,0-1.49-1.21l-.94-.72a1.57,1.57,0,0,1-.31-.26l.34.22,1,.67a14.22,14.22,0,0,1,1.53,1.18l.93.8.51.45.5.52a25.3,25.3,0,0,1,2.19,2.47,31.19,31.19,0,0,1,2.27,3.2,36.7,36.7,0,0,1,3.82,8.74,40.46,40.46,0,0,1,1.61,11.46,42.4,42.4,0,0,1-.51,6.45,46.1,46.1,0,0,1-1.67,6.64,53.9,53.9,0,0,1-6.54,13.14,72.69,72.69,0,0,1-10.29,11.94c-2,1.85-4,3.61-6.07,5.22-.24.19-.55.42-.73.59a1,1,0,0,0-.26.7.94.94,0,0,0,.33.67,1.42,1.42,0,0,0,.77.29l3.77.77,14.36,2.94,24.3,5,16.38,3.42,4.45,1,1.15.26Z" style="fill:#263238"></path><path d="M313.39,302.75c-1.39,1.42-10,18.18-10,18.18s3.35,74.95,2.79,83.91c-.36,5.72,1.63,32,3.11,50.25l6.08,6.92-30.25.32c.35-3.19,1.78-10.1,1.78-10.1,8.23-9,4.07-34.39.05-43.46-7.2-16.21-9-30.29-12.84-43.91s1.32-29.67-18.13-41.43l.62-25.31,23.16-9.48,30.58,5.23Z" style="fill:#fafafa"></path><path d="M255.63,328a1.7,1.7,0,0,1,.47,0,8,8,0,0,1,1.32.09A11.61,11.61,0,0,1,262,329.7a15.65,15.65,0,0,1,5.07,5.14,24.19,24.19,0,0,1,3.13,8.26c.66,3.07,1.08,6,1.49,8.7s.78,5.08,1.15,7.09.74,3.62,1,4.73a15.67,15.67,0,0,1,.39,1.74,1.47,1.47,0,0,1-.18-.43c-.1-.29-.24-.71-.41-1.26-.32-1.1-.74-2.7-1.16-4.71s-.84-4.42-1.26-7.09-.88-5.61-1.53-8.66a24.21,24.21,0,0,0-3-8.12A15.66,15.66,0,0,0,261.8,330a12.11,12.11,0,0,0-4.41-1.77C256.27,328,255.63,328,255.63,328Z" style="fill:#263238"></path><path d="M306.63,319.8a2.27,2.27,0,0,1-.1.56c-.11.42-.24.94-.4,1.58s-.27,1.56-.44,2.53-.25,2.12-.4,3.37c-.46,5-.6,12-.5,19.72s.4,14.69.6,19.74c.09,2.48.17,4.5.22,6,0,.66,0,1.2,0,1.63a2.52,2.52,0,0,1,0,.57,2.06,2.06,0,0,1-.08-.57c0-.43-.08-1-.13-1.62-.1-1.48-.23-3.51-.38-6-.3-5.05-.64-12-.76-19.75a175,175,0,0,1,.65-19.76c.18-1.26.31-2.4.48-3.39s.36-1.84.53-2.53l.5-1.56A4,4,0,0,1,306.63,319.8Z" style="fill:#263238"></path><path d="M223.18,452.34l26.95-11L267.64,462H226.79Z" style="fill:#e0e0e0"></path><polygon points="286.88 452.23 309.27 455.09 315.35 462.01 285.11 462.33 286.88 452.23" style="fill:#e0e0e0"></polygon><path d="M306.14,408.48a2,2,0,0,1,.09.56c0,.43.09,1,.16,1.62.12,1.48.28,3.51.48,6,.37,5.12.86,12.06,1.4,19.73.46,7.21.88,13.77,1.2,18.72l-.05-.11c1.81,2.11,3.29,3.85,4.38,5.11l1.17,1.41a3.05,3.05,0,0,1,.38.52,2.46,2.46,0,0,1-.47-.45l-1.25-1.34-4.5-5,0-.05v-.06c-.35-4.95-.81-11.51-1.32-18.72-.49-7.67-.93-14.62-1.25-19.73-.14-2.47-.24-4.5-.32-6,0-.66-.05-1.19-.06-1.62A2.23,2.23,0,0,1,306.14,408.48Z" style="fill:#263238"></path><path d="M273.55,362.91c0-.06.09-.12.18,0h.06l0,0h0v0s.06.12-.18.25-.25-.07-.28-.07l0,0,0,0c0-.13.08-.15.22-.2s0,0,0,.06h0l0-.08h.2a1,1,0,0,1-.2.06,2.46,2.46,0,0,1-.3.07h0v0l0,0C273.45,363.06,273.53,363,273.55,362.91Z" style="fill:#263238"></path><path d="M223.18,452.34l-6.53-.3c-4.31-.17-10.7-.42-19-.52-4.16,0-8.81,0-13.92.09s-10.67.47-16.69.66-12.49.29-19.38.21H145a17,17,0,0,1-2.66-.08,5.58,5.58,0,0,1-2.52-1,6.26,6.26,0,0,1-1.78-2.11,16.66,16.66,0,0,1-1.56-5.36c-.28-1.87-.43-3.77-.59-5.7s-.33-3.87-.66-5.81a21.68,21.68,0,0,0-.68-2.89,16.4,16.4,0,0,0-1.23-2.74c-2-3.53-5.13-6.37-8.14-9.36a24.13,24.13,0,0,0-2.39-2.12,21.1,21.1,0,0,1-2.36-2.27c-.74-.8-1.41-1.68-2.12-2.53s-1.23-1.85-1.85-2.78a42.61,42.61,0,0,1-4.74-12.79,63.7,63.7,0,0,1-1.26-14.16,58.36,58.36,0,0,1,2.09-14.6,52.9,52.9,0,0,1,2.64-7.11c1-2.35,2-4.7,3.14-7.05s2.34-4.65,3.66-6.93,2.82-4.49,4.41-6.64a86.45,86.45,0,0,1,11-12.05c1-.95,2.07-1.83,3.11-2.75s2.17-1.74,3.24-2.64c2.15-1.78,4.33-3.58,6.62-5.27a55.18,55.18,0,0,1,7.25-4.59c2.53-1.36,5.06-2.75,7.61-4.17q7.62-4.25,15.33-8.83c10.25-6.12,20.61-12.66,30.68-20.09a132.28,132.28,0,0,0,14.49-12.19,41.8,41.8,0,0,0,6-7.42c1.57-2.81,3.08-5.69,4.64-8.55l0,.1c.58-11.75,1.23-24.6,1.88-37.68v-.06l0,0,17-28.06v0h0l40-51.07.09-.1h.13l36.18,1.77h.06l.06,0,7.5,4.71h0v0a120.19,120.19,0,0,1,11.48,11.43c.44.53.87,1.07,1.3,1.6s.83,1.11,1.23,1.67A20.24,20.24,0,0,1,354.5,156c.16.31.33.62.47.94l.34,1c.69,2.65,1.66,5.25,2.61,7.87,3.93,10.41,8.23,20.91,12.77,31.36a58.16,58.16,0,0,0,4,7.4c1.46,2.41,2.93,4.8,4.39,7.2s2.87,4.82,4.16,7.31a35.06,35.06,0,0,1,3.19,7.79,9.41,9.41,0,0,1,.26,2.13,11.8,11.8,0,0,1-.33,2.1c-.28,1.36-.58,2.73-.94,4.07a17.73,17.73,0,0,1-3.64,7.51,8.5,8.5,0,0,1-3.51,2.33,17.15,17.15,0,0,1-4.11.78,21.94,21.94,0,0,1-8.25-.89l-.08,0-.05-.08c-.36-.57-.72-1.14-1.07-1.71l.29.11a20.24,20.24,0,0,1-5.42.73,5,5,0,0,1-2.71-.7,7.15,7.15,0,0,1-1.75-2.16c-.91-1.57-1.71-3.16-2.66-4.66a25.91,25.91,0,0,0-3.19-4.23,42,42,0,0,0-4-3.45c-1.38-1.11-2.76-2.22-4.19-3.25a47.46,47.46,0,0,0-9.13-5.2l.34-.16c-.46,1.45-.92,2.88-1.37,4.31l0,.06a.37.37,0,0,1,0,.15l0,.24c0,.16,0,.34,0,.51,0,.34.05.7.09,1q.12,1,.3,2.1c.22,1.4.48,2.79.74,4.18.53,2.78,1.1,5.55,1.67,8.3q1.69,8.28,3.36,16.46c1.08,5.46,2.1,10.9,3,16.33a82.23,82.23,0,0,1,1.09,8.17,33.32,33.32,0,0,1-.84,8.16,54.56,54.56,0,0,1-2.28,7.8c-.9,2.55-2,5-3.11,7.46a147.56,147.56,0,0,1-7.61,14,232.67,232.67,0,0,1-18.07,25.41l0,0,0,0-4.47,3,.1-.2q.64,14.44,1.26,28.43.3,7,.6,13.86c.15,4.58.38,9.11.28,13.63-.12,2.23-.05,4.47,0,6.7s.14,4.44.23,6.64q.27,6.61.65,13.09.72,13,1.71,25.38l-.05-.12c2.14,2.45,4.13,4.71,6.1,7l.3.34H284.05l0-.21a36.34,36.34,0,0,1,1.34-5.55c.54-1.75,1.11-3.43,1.7-5.1l0,0,0,0a14.46,14.46,0,0,0,3-5.68,30.85,30.85,0,0,0,1.07-6.31,62.11,62.11,0,0,0-.57-12.53,91.37,91.37,0,0,0-2.48-11.91c-.54-1.92-1.13-3.81-1.83-5.63s-1.54-3.6-2.23-5.4a135.1,135.1,0,0,1-6.19-21.4q-1.11-5.24-2.18-10.25c-.36-1.67-.73-3.31-1.13-4.93l-.6-2.42-.33-1.19-.16-.59-.08-.3,0-.14v0h0c.54-.15.15,0,.27-.07l0,.07,0,.11-.1.05L212.1,398l-16.21,9.19-4.16,2.35-1.42.78,1.4-.81,4.14-2.38L212,397.89l61.45-35.07-.06.16,0-.08c.12,0-.28,0,.26-.1v.07l0,.15.08.29.17.6.32,1.19c.2.8.41,1.61.61,2.42q.6,2.43,1.14,4.94,1.08,5,2.19,10.25a136,136,0,0,0,6.2,21.34c.69,1.8,1.51,3.55,2.23,5.39s1.31,3.74,1.86,5.67A92,92,0,0,1,291,427.06a62.11,62.11,0,0,1,.58,12.61,30.5,30.5,0,0,1-1.08,6.39,14.71,14.71,0,0,1-3.06,5.82l0-.06c-.59,1.66-1.15,3.34-1.69,5.08a36.88,36.88,0,0,0-1.33,5.48l-.19-.22h31.08l-.16.34-6.11-6.94,0-.06v-.06Q308,443,307.31,430c-.25-4.32-.48-8.69-.66-13.1-.09-2.21-.18-4.42-.23-6.65s-.12-4.47,0-6.73c.1-4.47-.13-9-.29-13.6s-.39-9.19-.6-13.85q-.61-14-1.27-28.43v-.13l.11-.08,4.46-3-.05,0a230.69,230.69,0,0,0,18-25.36,146.56,146.56,0,0,0,7.59-14c1.11-2.43,2.19-4.88,3.09-7.41a56,56,0,0,0,2.26-7.75,32.88,32.88,0,0,0,.82-8,78.25,78.25,0,0,0-1.09-8.1c-.9-5.42-1.92-10.86-3-16.31s-2.23-10.94-3.36-16.45c-.56-2.76-1.13-5.53-1.67-8.31-.26-1.39-.52-2.79-.75-4.2-.11-.7-.22-1.41-.3-2.12,0-.36-.07-.71-.09-1.08a5.23,5.23,0,0,1,0-.56l0-.29a1.45,1.45,0,0,1,.12-.35l0,.06c.46-1.43.91-2.86,1.38-4.31l.08-.26.26.11a47.39,47.39,0,0,1,9.23,5.26c1.44,1,2.83,2.15,4.22,3.26a41.82,41.82,0,0,1,4.07,3.5c2.53,2.6,4.18,5.88,5.92,9a6.83,6.83,0,0,0,1.6,2,4.59,4.59,0,0,0,2.44.61,20.09,20.09,0,0,0,5.26-.72l.19,0,.1.16,1.07,1.72-.13-.11a21.24,21.24,0,0,0,8,.86,16.65,16.65,0,0,0,4-.75,8,8,0,0,0,3.3-2.19,17.33,17.33,0,0,0,3.52-7.29c.36-1.33.65-2.69.93-4a11.33,11.33,0,0,0,.32-2,9.2,9.2,0,0,0-.24-2,35,35,0,0,0-3.15-7.66c-1.29-2.47-2.7-4.88-4.14-7.28l-4.4-7.2a60.08,60.08,0,0,1-4-7.45c-4.56-10.48-8.85-21-12.78-31.4-1-2.63-1.93-5.23-2.63-7.93-.8-2.54-2.6-4.73-4.32-6.8a119.05,119.05,0,0,0-11.42-11.38l0,0-7.49-4.71.12,0-36.18-1.78.22-.09c-13.82,17.61-27.35,34.87-40,51.06v0l-17,28.06,0-.11c-.65,13.07-1.3,25.92-1.89,37.67v.06l0,0c-1.56,2.87-3.07,5.74-4.66,8.57a41.47,41.47,0,0,1-6.11,7.5,129.81,129.81,0,0,1-14.55,12.23c-10.09,7.44-20.47,14-30.73,20.11q-7.71,4.58-15.35,8.82c-5,2.92-10.32,5.28-14.82,8.73-2.27,1.67-4.44,3.47-6.6,5.25-1.07.89-2.18,1.74-3.24,2.63s-2.1,1.8-3.1,2.74a86.12,86.12,0,0,0-10.93,12,76.47,76.47,0,0,0-4.39,6.61c-1.32,2.27-2.55,4.57-3.66,6.9s-2.15,4.68-3.14,7a55.92,55.92,0,0,0-2.63,7.07,58,58,0,0,0-2.08,14.51,63,63,0,0,0,1.24,14.08,42,42,0,0,0,4.68,12.69c.62.92,1.17,1.88,1.83,2.75s1.36,1.71,2.1,2.51a21.18,21.18,0,0,0,2.31,2.24,24.82,24.82,0,0,1,2.42,2.14c3,3,6.15,5.85,8.18,9.44a16.54,16.54,0,0,1,1.25,2.79,21.61,21.61,0,0,1,.69,2.94c.33,2,.49,3.92.65,5.84s.31,3.83.58,5.68a16.37,16.37,0,0,0,1.52,5.27,6,6,0,0,0,1.7,2,5.35,5.35,0,0,0,2.41,1,19,19,0,0,0,2.62.08h2.6c6.9.09,13.36,0,19.38-.18s11.58-.5,16.69-.63,9.76-.1,13.92-.05c8.33.13,14.72.4,19,.6l4.88.26C222.63,452.29,223.18,452.34,223.18,452.34Z" style="fill:#263238"></path><path d="M332.47,131.49c3.29-4.78,13.83-4.9,19.52-3.74s10.57,5,13.94,9.75,5.39,10.27,7,15.85A6.18,6.18,0,0,0,374,155.7a1.87,1.87,0,0,0,3.46-1.12,6.26,6.26,0,0,0-.49-2.28,4.09,4.09,0,0,1,3.68,1.2,6.65,6.65,0,0,1,1.72,3.58,9.69,9.69,0,0,1-10.87,11.29c.9,3.38,4.35,5.6,7.82,6.13s7-.29,10.38-1.11c-3.25,7.15-10.73,12-18.55,12.69a27.81,27.81,0,0,1-21.39-8,35.87,35.87,0,0,1-10.13-20.78c-.48-3.48-.53-7-1.31-10.43s-5.64-8.56-8.56-10.49Z" style="fill:#FF725E"></path><g style="opacity:0.30000000000000004"><path d="M379.32,174.5c-3.47-.53-6.92-2.75-7.82-6.13a9.69,9.69,0,0,0,10.87-11.29,6.65,6.65,0,0,0-1.72-3.58,4.09,4.09,0,0,0-3.68-1.2,6.26,6.26,0,0,1,.49,2.28A1.87,1.87,0,0,1,374,155.7a6.18,6.18,0,0,1-1.05-2.35c-1.63-5.58-3.65-11.12-7-15.85s-8.25-8.6-13.94-9.75-16.23-1-19.52,3.74l-2.71,4.9a24.47,24.47,0,0,1,4,3.5,27,27,0,0,1,17,16c1.53,4.07,2.06,8.53,4.1,12.37,3.34,6.28,10.5,10,17.6,10.23a29.1,29.1,0,0,0,16.27-4.83C385.66,174.34,382.47,175,379.32,174.5Z" style="fill:#fff"></path></g><g style="opacity:0.30000000000000004"><path d="M332.06,133.37l-.58-.1,1-1.78c3.29-4.78,13.83-4.9,19.52-3.74s10.57,5,13.94,9.75,5.39,10.27,7,15.85A6.18,6.18,0,0,0,374,155.7a1.87,1.87,0,0,0,3.46-1.12,6.26,6.26,0,0,0-.49-2.28,4.09,4.09,0,0,1,3.68,1.2,6.65,6.65,0,0,1,1.72,3.58,9.69,9.69,0,0,1-10.5,11.33,12.83,12.83,0,0,1-3.55-2c-3.58-2.86-5.45-7.32-7-11.65s-2.89-8.85-5.87-12.34a22.73,22.73,0,0,0-10.82-6.6A87.65,87.65,0,0,0,332.06,133.37Z" style="fill:#fff"></path></g><g style="opacity:0.30000000000000004"><path d="M334.65,129.49c4.48-2.78,12.6-2.71,17.34-1.74,5.69,1.15,10.57,5,13.94,9.75a50.19,50.19,0,0,1,6.71,14.8,8.11,8.11,0,0,1-4.48-1.05,16.44,16.44,0,0,1-5.3-5.57,43.31,43.31,0,0,0-4.48-6.33,20.06,20.06,0,0,0-8.68-5.1,50.44,50.44,0,0,0-10-1.75,9.07,9.07,0,0,1-3.31-.74A3.14,3.14,0,0,1,334.65,129.49Z" style="fill:#fff"></path></g><path d="M214.29,448.23a43.35,43.35,0,0,0-31.93-7.46c-5.55.92-11.43,2.89-16.6.67-6.6-2.82-8.83-11-13.86-16.11-6.49-6.6-16.68-7.36-25.91-8s-19.53-2-25.31-9.19c-3.85-4.83-6.71-14.35-4.3-20s8.25-13.27,14.39-13.84L116.13,359c-10.47-5.15-20.29-3.33-30.37,2.52s-17.57,15.43-23,25.74c-7.83,14.84-11.88,32.29-7.9,48.59S72,466.69,88.56,469.26c9.86,1.53,19.83-1.09,29.66-2.79,28.88-5,58.45-2.06,87.75-1.59,5.71.1,13.11-1.22,14.09-6.85C220.74,454.08,217.55,450.56,214.29,448.23Z" style="fill:#FF725E"></path><g style="opacity:0.30000000000000004"><path d="M220.06,458c.68-3.95-2.51-7.47-5.77-9.8a43.35,43.35,0,0,0-31.93-7.46c-5.55.92-11.43,2.89-16.6.67-6.6-2.82-8.83-11-13.86-16.11-6.49-6.6-16.68-7.36-25.91-8s-19.53-2-25.31-9.19c-3.85-4.83-6.71-14.35-4.3-20s8.25-13.27,14.39-13.84l4.07-11.65c-7.09-1.22-14.67.88-20.78,4.82C86.94,372.06,81.54,378.87,77,386c-5,7.88-9.28,16.42-11.07,25.6s-1,19.09,3.6,27.25S82.69,453.13,92,453.42c6.55.2,13-2.32,19.53-1.88,7.89.53,14.77,5.25,21.46,9.45,1.76,1.1,3.57,2.18,5.44,3.16,9.61-.62,19.28-.64,29-.43a19.74,19.74,0,0,1,6.57-1.26,20.65,20.65,0,0,1,7.43,1.68c8.19.29,16.37.61,24.54.74C211.68,465,219.08,463.66,220.06,458Z" style="fill:#fff"></path></g><g style="opacity:0.30000000000000004"><path d="M220.06,458c.68-3.95-2.51-7.47-5.77-9.8a43.35,43.35,0,0,0-31.93-7.46c-5.55.92-11.43,2.89-16.6.67-6.6-2.82-8.83-11-13.86-16.11-6.49-6.6-16.68-7.36-25.91-8s-19.53-2-25.31-9.19c-3.85-4.83-6.71-14.35-4.3-20s8.25-13.27,14.39-13.84l3.39-9.68c-6.38.09-12.56,2.76-17.59,6.7a54.76,54.76,0,0,0-12.49,14.76c-5.32,8.66-9.32,18.58-8.67,28.72s6.91,20.38,16.64,23.33c9,2.73,18.89-1,28.06,1.06,7,1.61,12.83,6.48,18.69,10.72s12.68,8.17,19.88,7.41c6.71-.71,12.85-5.43,19.55-4.59,5.14.65,9.24,4.43,13.82,6.84a29.18,29.18,0,0,0,27.85-.86C220,458.49,220,458.26,220.06,458Z" style="fill:#fff"></path></g><g style="opacity:0.30000000000000004"><path d="M214.29,448.23a43.35,43.35,0,0,0-31.93-7.46c-5.55.92-11.43,2.89-16.6.67-6.6-2.82-8.83-11-13.86-16.11-6.49-6.6-16.68-7.36-25.91-8s-19.53-2-25.31-9.19c-3.85-4.83-6.71-14.35-4.3-20s8.25-13.27,14.39-13.84l1.8-5.13A34.44,34.44,0,0,0,86.26,404.4c.35,6.92,3.36,14.3,9.59,17.34,5.31,2.6,11.58,1.51,17.46,2.07A31,31,0,0,1,132.43,433c4.21,4.34,7.21,10,12.34,13.2,5.68,3.56,12.91,3.44,19.55,2.46s13.3-2.7,20-1.9c10.44,1.24,20,8.56,30.42,7.41A14.84,14.84,0,0,0,219,453,16.9,16.9,0,0,0,214.29,448.23Z" style="fill:#fff"></path></g><path d="M78.11,422.79,76,423.92l2.07,1.13a3.93,3.93,0,0,1,1.54,1.54l1.13,2.07,1.13-2.07a3.93,3.93,0,0,1,1.54-1.54l2.07-1.13-2.07-1.13a3.93,3.93,0,0,1-1.54-1.54l-1.13-2.07-1.13,2.07A3.93,3.93,0,0,1,78.11,422.79Z" style="fill:#fafafa"></path><path d="M100.78,453.87,98.72,455l2.06,1.13a3.83,3.83,0,0,1,1.55,1.54l1.13,2.07,1.13-2.07a3.81,3.81,0,0,1,1.54-1.54L108.2,455l-2.07-1.13a3.83,3.83,0,0,1-1.54-1.55l-1.13-2.06-1.13,2.06A3.85,3.85,0,0,1,100.78,453.87Z" style="fill:#fafafa"></path><path d="M76.38,381.24l-2.07,1.13,2.07,1.13A3.87,3.87,0,0,1,77.92,385l1.13,2.07L80.18,385a3.87,3.87,0,0,1,1.54-1.54l2.07-1.13-2.07-1.13a4,4,0,0,1-1.54-1.55l-1.13-2.06-1.13,2.06A4,4,0,0,1,76.38,381.24Z" style="fill:#fafafa"></path><path d="M60.12,410.29l-.7.38.7.38a1.34,1.34,0,0,1,.51.52l.38.69.38-.69a1.3,1.3,0,0,1,.52-.52l.69-.38-.69-.38a1.28,1.28,0,0,1-.52-.51l-.38-.7-.38.7A1.32,1.32,0,0,1,60.12,410.29Z" style="fill:#fafafa"></path><path d="M109.11,431.91l-.69.38.69.38a1.3,1.3,0,0,1,.52.52l.38.69.38-.69a1.34,1.34,0,0,1,.51-.52l.7-.38-.7-.38a1.25,1.25,0,0,1-.51-.51l-.38-.7-.38.7A1.22,1.22,0,0,1,109.11,431.91Z" style="fill:#fafafa"></path><path d="M295.36,123.81c-5.81,2.21-10.92,6.19-16.95,7.71s-12.32.48-18.45,1.27c-13.52,1.77-25.09,13.52-26.64,27.07-.92,8.09,1.24,16.92-2.79,24-3.13,5.48-9.19,8.43-14.61,11.65s-10.95,7.79-11.58,14.06,4.1,12.13,5.17,18.49a17,17,0,0,1-8.9,17.53c-6.11,3.07-14.6,2.81-18,8.72-2.42,4.15-5.54,12.94-3.06,17.06,4.67,7.74,6.47,11.9,15.37,13.45,0,0,23.06-.08,51.2-38.67,21.15-29,29-77.38,43.69-93.67S310.64,134,310.64,134l21,1.51C324.07,124,308.19,118.93,295.36,123.81Z" style="fill:#FF725E"></path><g style="opacity:0.30000000000000004"><path d="M295.36,123.81c-5.81,2.21-10.92,6.19-16.95,7.71s-12.32.48-18.45,1.27c-13.52,1.77-25.09,13.52-26.64,27.07-.92,8.09,1.24,16.92-2.79,24-3.13,5.48-9.19,8.43-14.61,11.65s-10.95,7.79-11.58,14.06,4.1,12.13,5.17,18.49a17,17,0,0,1-8.9,17.53c-6.11,3.07-14.6,2.81-18,8.72-2.42,4.15-5.54,12.94-3.06,17.06,4.67,7.74,6.47,11.9,15.37,13.45,0,0,3.7,0,10-2.51.93-5,4.82-9.71,9.11-12.9,5.72-4.28,12.55-7.3,17.05-12.85,9.84-12.14,4.93-31.3,13.62-44.29,3.63-5.42,9.31-9.21,12.95-14.63,6.86-10.24,5.19-24.15,10.7-35.18,8.17-16.34,29.77-22.32,38.29-38.48a16.39,16.39,0,0,0,.89-2A29.14,29.14,0,0,0,295.36,123.81Z" style="fill:#fff"></path></g><g style="opacity:0.30000000000000004"><path d="M295.36,123.81c-5.81,2.21-10.92,6.19-16.95,7.71s-12.32.48-18.45,1.27c-13.52,1.77-25.09,13.52-26.64,27.07-.92,8.09,1.24,16.92-2.79,24-3.13,5.48-9.19,8.43-14.61,11.65s-10.95,7.79-11.58,14.06,4.1,12.13,5.17,18.49a17,17,0,0,1-8.9,17.53c-6.11,3.07-14.6,2.81-18,8.72-2.42,4.15-5.54,12.94-3.06,17.06,3.65,6.05,5.54,9.91,10.45,12.05.32-4.64,3.43-9.23,7.23-12.23,5.08-4,11.35-6.27,16.53-10.15a32.7,32.7,0,0,0,12.81-22.8c.56-5.8-.46-11.62-.62-17.44s.69-12,4.39-16.52c3.49-4.26,8.94-6.32,13.28-9.72a26.47,26.47,0,0,0,9.95-18.89c.35-5.65-1.1-11.57,1-16.83,3.15-7.92,12.56-10.78,20.11-14.71a51.39,51.39,0,0,0,21-20.4Z" style="fill:#fff"></path></g><g style="opacity:0.30000000000000004"><path d="M278.41,131.52c-6,1.52-12.32.48-18.45,1.27-13.52,1.77-25.09,13.52-26.64,27.07-.92,8.09,1.24,16.92-2.79,24-3.13,5.48-9.19,8.43-14.61,11.65s-10.95,7.79-11.58,14.06,4.1,12.13,5.17,18.49a17,17,0,0,1-8.9,17.53c-6.11,3.07-14.6,2.81-18,8.72-2.42,4.15-5.54,12.94-3.06,17.06,1,1.6,1.81,3.05,2.62,4.35-.42-4.32.19-8.49,3.09-11.57,3.68-3.91,9.6-4.38,14.69-6.1,12.47-4.22,20.88-18.08,18.86-31.09-1.05-6.72-4.46-13.73-1.73-20,2.51-5.72,9.11-8.15,14.18-11.8a29.78,29.78,0,0,0,12.14-21.66c.54-7.25-1.51-15.08,1.91-21.49s11.34-9.13,18.37-11.47c6.61-2.21,13.27-4.77,18.64-9.21a26.24,26.24,0,0,0,2.44-2.28A32.43,32.43,0,0,1,278.41,131.52Z" style="fill:#fff"></path></g><path d="M248.26,153.5l-2.06,1.13,2.06,1.13a3.89,3.89,0,0,1,1.55,1.54l1.13,2.06,1.13-2.06a3.81,3.81,0,0,1,1.54-1.54l2.07-1.13-2.07-1.13a3.89,3.89,0,0,1-1.54-1.55l-1.13-2.06L249.81,152A4,4,0,0,1,248.26,153.5Z" style="fill:#fafafa"></path><path d="M250.38,207.53l-2.06,1.13,2.06,1.13a4,4,0,0,1,1.55,1.55l1.13,2.06,1.13-2.06a3.89,3.89,0,0,1,1.54-1.55l2.07-1.13-2.07-1.13a3.81,3.81,0,0,1-1.54-1.54l-1.13-2.06L251.93,206A3.89,3.89,0,0,1,250.38,207.53Z" style="fill:#fafafa"></path><path d="M256.19,146.22l-1.07.59,1.07.58a2,2,0,0,1,.79.8l.59,1.06.58-1.06a1.93,1.93,0,0,1,.8-.8l1.06-.58-1.06-.59a2,2,0,0,1-.8-.79l-.58-1.07-.59,1.07A2,2,0,0,1,256.19,146.22Z" style="fill:#fafafa"></path><path d="M231,223.52l-1.06.59,1.06.58a1.93,1.93,0,0,1,.8.8l.59,1.06.58-1.06a1.93,1.93,0,0,1,.8-.8l1.06-.58-1.06-.59a2,2,0,0,1-.8-.79l-.58-1.07-.59,1.07A2,2,0,0,1,231,223.52Z" style="fill:#fafafa"></path><path d="M193.18,266.17l-1.07.59,1.07.58a2.05,2.05,0,0,1,.8.8l.58,1.06.58-1.06a2,2,0,0,1,.8-.8l1.07-.58-1.07-.59a2,2,0,0,1-.8-.79l-.58-1.07-.58,1.07A2.09,2.09,0,0,1,193.18,266.17Z" style="fill:#fafafa"></path><path d="M309.73,130.19c1.9-5.23,6.18-9.23,10.65-12.56s9.3-6.25,13.09-10.33c3.84,8.83,2.17,19.17-1.49,28.08-1.36,3.3-3.41,6.86-6.9,7.61l-14.18,5.45C308.77,142.59,307.6,136,309.73,130.19Z" style="fill:#fafafa"></path><path d="M321.22,128.26c2.79-4.54,6.95-8.06,11-11.48a32.56,32.56,0,0,1-12.49,27.09l-.41-.34C317.2,138.66,318.43,132.81,321.22,128.26Z" style="fill:#FF725E"></path><g style="opacity:0.4"><path d="M321.22,128.26c2.79-4.54,6.95-8.06,11-11.48a32.56,32.56,0,0,1-12.49,27.09l-.41-.34C317.2,138.66,318.43,132.81,321.22,128.26Z" style="fill:#fff"></path></g><path d="M333.19,116.06a5.23,5.23,0,0,1-.89,1c-.62.59-1.55,1.38-2.71,2.35a30.93,30.93,0,0,0-7.52,8.91,33.1,33.1,0,0,0-2.79,5.79,14.92,14.92,0,0,0-.74,5.15,13.85,13.85,0,0,0,1.13,4.68s-.08-.09-.2-.28a6.59,6.59,0,0,1-.45-.87,10.66,10.66,0,0,1-.85-3.51,14.64,14.64,0,0,1,.65-5.31A18.63,18.63,0,0,1,320,131c.48-1,1-2,1.59-3a29.32,29.32,0,0,1,7.73-8.93c1.2-.93,2.16-1.67,2.81-2.21A8.63,8.63,0,0,1,333.19,116.06Z" style="fill:#263238"></path><path d="M331,137.57a2.53,2.53,0,0,1,.19-.59c.16-.43.36-1,.61-1.68a61.73,61.73,0,0,0,1.86-6.33c.32-1.36.61-2.86.86-4.5s.52-3.39.66-5.25a26,26,0,0,0-.12-5.83,14.53,14.53,0,0,0-2.1-5.87l.41,0a37,37,0,0,1-2.68,2.61c-3.66,3.19-7.51,5.73-10.83,8.25a48.31,48.31,0,0,0-4.54,3.77,24.89,24.89,0,0,0-3.29,3.92,19.49,19.49,0,0,0-2.86,6.81c-.18.86-.29,1.54-.35,2a4.51,4.51,0,0,1-.12.7,3,3,0,0,1,0-.71,20,20,0,0,1,.26-2,18.88,18.88,0,0,1,2.75-7,23.62,23.62,0,0,1,3.3-4,48.65,48.65,0,0,1,4.55-3.86c3.32-2.54,7.16-5.1,10.78-8.25.95-.84,1.84-1.71,2.64-2.57l.23-.25.18.28a15.19,15.19,0,0,1,2.16,6.08,26.35,26.35,0,0,1,.08,5.94c-.15,1.88-.43,3.64-.71,5.28s-.59,3.15-.93,4.51a52.27,52.27,0,0,1-2,6.32c-.29.72-.53,1.27-.7,1.64A2.8,2.8,0,0,1,331,137.57Z" style="fill:#263238"></path></g></svg>
